<svg xmlns="http://www.w3.org/2000/svg" width="280" height="321" viewBox="0 0 280 321">
  <defs>
    <style>
      .cls-1 {
        fill: #00a64f;
      }

      .cls-1, .cls-2, .cls-3 {
        fill-rule: evenodd;
      }

      .cls-2 {
        fill: #ec7b22;
      }

      .cls-3 {
        fill: #dd2126;
      }
    </style>
  </defs>
  <path class="cls-1" d="M215.679,176.386l60.7,60.607a13.554,13.554,0,0,1,0,19.138l-60.7,60.606a13.609,13.609,0,0,1-19.17,0l-60.7-60.606a13.556,13.556,0,0,1,0-19.138l60.7-60.607A13.609,13.609,0,0,1,215.679,176.386Z"/>
  <path class="cls-2" d="M105.5,72.65l75.927,75.805a16.956,16.956,0,0,1,0,23.938L105.5,248.2a17.024,17.024,0,0,1-23.977,0L5.593,172.393a16.958,16.958,0,0,1,0-23.938L81.522,72.65A17.024,17.024,0,0,1,105.5,72.65Z"/>
  <path class="cls-3" d="M215.679,4.262l60.7,60.607a13.555,13.555,0,0,1,0,19.139l-60.7,60.606a13.611,13.611,0,0,1-19.17,0L135.8,84.008a13.557,13.557,0,0,1,0-19.139l60.7-60.607A13.61,13.61,0,0,1,215.679,4.262Z"/>
</svg>
